<svg width="22" height="22" viewBox="0 0 22 22" fill="none" xmlns="http://www.w3.org/2000/svg">
<path d="M10.9997 1.83301C5.93967 1.83301 1.83301 5.93967 1.83301 10.9997C1.83301 16.0597 5.93967 20.1663 10.9997 20.1663C16.0597 20.1663 20.1663 16.0597 20.1663 10.9997C20.1663 5.93967 16.0597 1.83301 10.9997 1.83301ZM12.2922 16.5822V18.333H9.84467V16.5638C8.27717 16.2338 6.94801 15.2255 6.84717 13.4472H8.64384C8.73551 14.4097 9.39551 15.1613 11.073 15.1613C12.8697 15.1613 13.273 14.263 13.273 13.7038C13.273 12.943 12.8697 12.228 10.8255 11.7422C8.55218 11.1922 6.99384 10.2572 6.99384 8.37801C6.99384 6.80134 8.26801 5.77467 9.84467 5.43551V3.66634H12.2922V5.45384C13.9972 5.86634 14.8497 7.15884 14.9047 8.56134H13.108C13.0622 7.54384 12.5213 6.84717 11.073 6.84717C9.69801 6.84717 8.87301 7.47051 8.87301 8.35051C8.87301 9.12051 9.46884 9.62468 11.3205 10.1013C13.1722 10.578 15.1522 11.3755 15.1522 13.6855C15.143 15.363 13.8872 16.2797 12.2922 16.5822Z" fill="#9069C1"/>
</svg>
