<svg width="22" height="22" viewBox="0 0 22 22" fill="none" xmlns="http://www.w3.org/2000/svg">
<path d="M11.0002 1.83301C5.94016 1.83301 1.8335 5.93967 1.8335 10.9997C1.8335 16.0597 5.94016 20.1663 11.0002 20.1663C16.0602 20.1663 20.1668 16.0597 20.1668 10.9997C20.1668 5.93967 16.0602 1.83301 11.0002 1.83301ZM12.2927 16.5822V18.333H9.84516V16.5638C8.27766 16.2338 6.9485 15.2255 6.84766 13.4472H8.64433C8.736 14.4097 9.396 15.1613 11.0735 15.1613C12.8702 15.1613 13.2735 14.263 13.2735 13.7038C13.2735 12.943 12.8702 12.228 10.826 11.7422C8.55266 11.1922 6.99433 10.2572 6.99433 8.37801C6.99433 6.80134 8.2685 5.77467 9.84516 5.43551V3.66634H12.2927V5.45384C13.9977 5.86634 14.8502 7.15884 14.9052 8.56134H13.1085C13.0627 7.54384 12.5218 6.84717 11.0735 6.84717C9.6985 6.84717 8.8735 7.47051 8.8735 8.35051C8.8735 9.12051 9.46933 9.62468 11.321 10.1013C13.1727 10.578 15.1527 11.3755 15.1527 13.6855C15.1435 15.363 13.8877 16.2797 12.2927 16.5822Z" fill="#CDCDCD"/>
</svg>
