<?xml version="1.0" standalone="no"?>
<!DOCTYPE svg PUBLIC "-//W3C//DTD SVG 20010904//EN"
 "http://www.w3.org/TR/2001/REC-SVG-20010904/DTD/svg10.dtd">
<svg version="1.0" xmlns="http://www.w3.org/2000/svg"
 width="840.000000pt" height="878.000000pt" viewBox="0 0 840.000000 878.000000"
 preserveAspectRatio="xMidYMid meet">

<g transform="translate(0.000000,878.000000) scale(0.100000,-0.100000)"
fill="#000000" stroke="none">
<path d="M3740 8356 c-553 -74 -1065 -246 -1526 -512 -591 -341 -1156 -911
-1482 -1494 -290 -521 -451 -1014 -514 -1580 -16 -150 -16 -621 1 -770 56
-496 182 -923 406 -1370 230 -460 505 -826 880 -1171 576 -530 1260 -870 2032
-1009 366 -66 923 -68 1303 -4 512 86 1073 303 1503 581 410 264 810 649 1120
1075 374 514 649 1242 719 1898 17 161 17 598 0 760 -70 665 -302 1296 -689
1871 -209 311 -559 677 -889 930 -506 389 -1105 651 -1736 764 -185 33 -333
43 -678 50 -249 4 -292 2 -450 -19z m820 -276 c658 -57 1327 -315 1863 -718
164 -124 219 -171 381 -330 421 -414 728 -898 906 -1432 59 -175 102 -331 94
-339 -3 -3 -410 -7 -904 -9 l-898 -3 -48 91 c-94 177 -322 446 -504 593 -229
184 -505 322 -796 397 -262 67 -658 65 -921 -5 -288 -76 -573 -217 -778 -385
-184 -151 -423 -432 -511 -602 l-45 -88 -904 0 c-523 0 -905 4 -905 9 0 27 56
218 100 339 127 356 299 693 488 956 161 223 484 562 707 739 535 427 1158
686 1875 781 127 17 631 21 800 6z m-182 -1991 c406 -44 759 -214 1042 -499
125 -126 208 -245 300 -427 92 -181 90 -179 276 -193 71 -5 519 -10 996 -10
l867 0 13 -42 c16 -54 18 -990 2 -1053 l-10 -40 -904 -7 c-498 -4 -950 -12
-1006 -17 -128 -11 -155 -25 -185 -93 -96 -219 -196 -365 -364 -533 -228 -229
-469 -366 -790 -449 -205 -53 -550 -60 -764 -16 -310 65 -600 214 -814 419
-153 148 -253 282 -376 511 -35 63 -71 123 -81 134 -17 17 -46 19 -412 27
-216 4 -669 10 -1007 13 -467 4 -616 8 -622 18 -24 39 -34 201 -34 563 0 353
6 456 31 546 4 14 84 16 782 22 427 4 883 10 1011 14 276 7 244 -8 336 164
202 380 441 621 780 784 173 84 399 150 575 168 78 8 267 6 358 -4z m-1950
-2622 c103 -201 323 -463 522 -624 226 -182 515 -327 795 -397 192 -49 507
-65 705 -37 439 62 835 258 1149 570 158 157 309 355 378 495 l27 56 904 0
904 0 -7 -32 c-61 -307 -298 -852 -509 -1168 -279 -420 -706 -834 -1129 -1096
-203 -126 -569 -296 -792 -369 -955 -310 -2035 -222 -2900 234 -353 187 -620
384 -905 670 -289 289 -481 550 -647 876 -150 295 -261 572 -309 770 -13 55
-24 103 -24 108 0 4 406 7 903 7 l902 0 33 -63z"/>
<path d="M4010 5800 c-207 -26 -479 -142 -665 -285 -536 -410 -716 -1133 -430
-1720 156 -321 378 -541 700 -694 225 -108 291 -122 586 -122 292 0 364 15
584 121 329 159 528 356 694 687 119 239 135 319 129 653 -5 223 -6 239 -33
320 -97 302 -298 589 -535 766 -161 120 -401 228 -579 260 -106 19 -350 26
-451 14z m410 -294 c407 -62 768 -391 881 -801 27 -100 38 -407 19 -536 -31
-214 -138 -419 -309 -590 -140 -139 -271 -219 -471 -285 -84 -28 -88 -28 -335
-29 -226 0 -257 2 -320 21 -306 92 -550 287 -694 554 -159 297 -171 740 -26
1044 103 218 291 413 497 517 95 48 210 87 303 104 96 18 339 18 455 1z"/>
<path d="M4127 5238 c-202 -20 -396 -122 -552 -290 -89 -96 -132 -165 -170
-272 -72 -201 -78 -304 -30 -486 42 -155 90 -242 195 -353 162 -171 293 -248
490 -289 444 -92 917 266 990 749 26 170 -30 388 -143 552 -44 65 -152 175
-221 227 -154 116 -376 181 -559 162z m241 -304 c184 -48 327 -196 383 -394 7
-25 13 -92 13 -150 1 -230 -104 -415 -286 -504 -333 -164 -725 -8 -824 329
-26 88 -24 277 5 366 89 280 398 434 709 353z"/>
</g>
</svg>
