<svg width="18" height="18" viewBox="0 0 18 18" fill="none" xmlns="http://www.w3.org/2000/svg">
<path fill-rule="evenodd" clip-rule="evenodd" d="M8.6763 0.666504C4.25271 0.666504 0.666687 4.17333 0.666687 8.49922C0.666687 12.8251 4.25271 16.3319 8.6763 16.3319C10.5683 16.3319 12.307 15.6905 13.6775 14.6178L16.2809 17.157L16.3502 17.2154C16.5919 17.3903 16.9345 17.3704 17.1532 17.1559C17.3938 16.9201 17.3933 16.5381 17.1521 16.3028L14.5793 13.7934C15.8875 12.3993 16.6859 10.5405 16.6859 8.49922C16.6859 4.17333 13.0999 0.666504 8.6763 0.666504ZM8.6763 1.87295C12.4185 1.87295 15.4522 4.83963 15.4522 8.49922C15.4522 12.1588 12.4185 15.1255 8.6763 15.1255C4.93406 15.1255 1.90038 12.1588 1.90038 8.49922C1.90038 4.83963 4.93406 1.87295 8.6763 1.87295Z" fill="#EFEFEF"/>
</svg>
