<svg width="19" height="19" viewBox="0 0 19 19" fill="none" xmlns="http://www.w3.org/2000/svg">
<g clip-path="url(#clip0_4823_1633)">
<path d="M18.7067 1.8875C18.4745 1.60368 18.1269 1.44727 17.7278 1.44727C17.5107 1.44727 17.2809 1.49307 17.0446 1.58324L0.961391 7.72264C0.107879 8.04836 -0.00707311 8.53716 0.000319736 8.79968C0.00771258 9.06205 0.150206 9.5436 1.02082 9.82047C1.02604 9.82221 1.03126 9.82366 1.03648 9.82526L3.29202 10.4706L14.2769 4.85856C14.5506 4.71853 14.8861 4.82725 15.0259 5.10108C15.1358 5.31619 15.0917 5.569 14.9352 5.73541L14.9356 5.73585L8.82797 12.2255L8.65373 12.9316L10.8348 14.6879L13.8571 17.1216C13.8597 17.1236 13.8624 17.1258 13.8651 17.1278C14.1976 17.3858 14.5609 17.5221 14.9156 17.5222C15.6088 17.5222 16.1607 17.0092 16.3214 16.2154L18.9566 3.20343C19.0623 2.68129 18.9736 2.2138 18.7067 1.8875Z" fill="#EFEFEF"/>
<path d="M7.78236 11.8172C7.80454 11.7271 7.84919 11.6413 7.91718 11.569L11.9248 7.31055L4.48804 11.1099L6.17666 15.9392C6.27291 16.2143 6.41613 16.4486 6.59327 16.632L7.78207 11.817L7.78236 11.8172Z" fill="#EFEFEF"/>
<path d="M7.6297 17.0789C8.03109 17.0755 8.42552 16.9062 8.7711 16.588L10.0066 15.4504L8.35928 14.124L7.6297 17.0789Z" fill="#EFEFEF"/>
</g>
<defs>
<clipPath id="clip0_4823_1633">
<rect width="19" height="19" fill="white"/>
</clipPath>
</defs>
</svg>
